<?xml version="1.0" encoding="utf-8"?>
<!-- Generator: Adobe Illustrator 16.0.0, SVG Export Plug-In . SVG Version: 6.00 Build 0)  -->
<!DOCTYPE svg PUBLIC "-//W3C//DTD SVG 1.1//EN" "http://www.w3.org/Graphics/SVG/1.1/DTD/svg11.dtd">
<svg version="1.1" id="Layer_1" xmlns="http://www.w3.org/2000/svg" xmlns:xlink="http://www.w3.org/1999/xlink" x="0px" y="0px"
	 width="230px" height="113.387px" viewBox="0 0 230 113.387" style="enable-background:new 0 0 230 113.387;" xml:space="preserve"
	>
<style type="text/css">
<![CDATA[
	.st0{fill:none;stroke:#000000;stroke-width:9.2378;stroke-linecap:round;stroke-linejoin:round;stroke-miterlimit:10;}
	.st1{fill:#BBBBBB;stroke:#000000;stroke-width:3.0793;stroke-linecap:round;stroke-linejoin:round;stroke-miterlimit:10;}
	.st2{fill:none;stroke:#000000;stroke-width:5;stroke-linecap:round;stroke-linejoin:round;stroke-miterlimit:10;}
	.st3{filter:url(#Adobe_OpacityMaskFilter);}
	.st4{fill:none;stroke:#FFFFFF;stroke-width:2;stroke-miterlimit:10;}
	.st5{fill:none;stroke:#000000;stroke-width:3.0793;stroke-linecap:round;stroke-linejoin:round;stroke-miterlimit:10;}
	.st6{fill:none;stroke:#FFFFFF;stroke-miterlimit:10;}
	.st7{fill:none;stroke:#000000;stroke-width:33;stroke-miterlimit:10;}
	.st8{fill:#BBBBBB;}
	.st9{fill:none;stroke:#000000;stroke-width:1.9245;stroke-linecap:round;stroke-linejoin:round;stroke-miterlimit:10;}
	.st10{mask:url(#SVGID_1_);}
	.st11{mask:url(#SVGID_2_);}
	.st12{mask:url(#SVGID_3_);}
	.st13{mask:url(#SVGID_4_);}
	.st14{stroke:#000000;stroke-width:3.0793;stroke-linecap:round;stroke-linejoin:round;stroke-miterlimit:10;}
	.st15{fill:none;stroke:#000000;stroke-miterlimit:10;}
	.st16{fill:#FFFFFF;}
	.st17{fill:none;stroke:#00AEEF;stroke-width:6;stroke-linecap:round;stroke-linejoin:round;stroke-miterlimit:10;}
	.st18{fill:none;stroke:#00AEEF;stroke-width:8;stroke-linecap:round;stroke-linejoin:round;stroke-miterlimit:10;}
	.st19{fill:#FFFFFF;stroke:#00AEEF;stroke-width:8;stroke-linecap:round;stroke-linejoin:round;stroke-miterlimit:10;}
	.st20{stroke:#000000;stroke-width:8;stroke-linecap:round;stroke-linejoin:round;stroke-miterlimit:10;}
	.st21{fill:#00AEEF;}
	.st22{fill:none;stroke:#000000;stroke-width:24;stroke-linecap:round;stroke-linejoin:round;stroke-miterlimit:10;}
	.st23{filter:url(#Adobe_OpacityMaskFilter_1_);}
	.st24{filter:url(#Adobe_OpacityMaskFilter_2_);}
	.st25{filter:url(#Adobe_OpacityMaskFilter_3_);}
	.st26{fill:none;stroke:#000000;stroke-width:42.5197;stroke-miterlimit:10;}
]]>
</style>
<g>
	<g>
		<g>
			<path d="M170.523,58.455c-3.971,0-4.529,2.403-4.529,4.137c0,1.51,0.225,3.02,0.447,4.528c0.225,1.51,0.447,3.075,0.447,4.585
				c0,5.646-3.521,7.659-8.105,7.659h-1.176v-3.075h0.951c3.131-0.056,4.473-1.732,4.473-4.863c0-1.342-0.223-2.628-0.391-4.025
				c-0.225-1.342-0.447-2.74-0.447-4.25c0-3.578,1.564-5.479,4.025-6.094v-0.111c-2.461-0.671-4.025-2.46-4.025-6.038
				c0-1.51,0.223-2.852,0.447-4.249c0.168-1.342,0.391-2.684,0.391-3.97c0-3.019-1.174-4.752-4.416-4.808h-1.008v-3.075h1.119
				c4.752,0,8.162,2.181,8.162,7.323c0,1.566-0.223,3.075-0.447,4.641c-0.223,1.565-0.447,3.131-0.447,4.696
				c0,1.957,0.559,4.138,4.529,4.138V58.455z"/>
		</g>
	</g>
	<g>
		<g>
			<path d="M59.475,55.604c3.971,0,4.529-2.181,4.529-4.138c0-1.565-0.225-3.131-0.447-4.696c-0.225-1.565-0.447-3.074-0.447-4.641
				c0-5.143,3.354-7.323,8.107-7.323h1.174v3.075h-1.008c-3.297,0-4.416,1.789-4.416,4.808c0,1.286,0.168,2.628,0.391,3.97
				c0.225,1.397,0.393,2.739,0.393,4.249c0.055,3.578-1.51,5.367-4.025,6.038v0.111c2.516,0.615,4.08,2.516,4.025,6.094
				c0,1.51-0.168,2.908-0.393,4.25c-0.223,1.397-0.391,2.684-0.391,4.025c0,3.131,1.285,4.863,4.416,4.863h1.008v3.075h-1.174
				c-4.641,0-8.107-2.013-8.107-7.659c0-1.51,0.223-3.075,0.447-4.585c0.223-1.509,0.447-3.019,0.447-4.528
				c0-1.733-0.559-4.137-4.529-4.137V55.604z"/>
		</g>
	</g>
	<g>
		<g>
			<path d="M78.334,51.667c1.816-2.666,4.25-3.979,7.225-3.979c2.512,0,3.902,1.275,4.365,2.936l0.619-2.434
				c0.734,0.039,1.391,0.039,2.047,0.039c2.125,0,3.67-0.116,4.713-0.31c-1.467,6.685-2.395,11.358-2.82,14.024
				c-0.037,0.348-0.076,0.657-0.076,0.928c0,0.889,0.387,1.352,1.119,1.352c0.465,0,1.006-0.348,1.623-1.004l1.43,1.507
				c-1.236,1.894-3.438,3.245-5.641,3.245c-2.781,0-4.25-1.391-4.25-3.67c0-0.464,0.039-0.928,0.154-1.43l-0.193-0.039
				c-0.811,2.898-3.438,5.139-6.723,5.139c-4.172,0-6.297-2.55-6.297-7.147C75.629,57.346,76.518,54.294,78.334,51.667z
				 M84.398,64.688c3.014,0,4.443-7.38,4.443-11.127c0-1.971-0.424-2.898-1.814-2.898c-1.275,0-2.357,1.159-3.168,3.438
				c-0.813,2.28-1.236,4.637-1.236,7.109S83.008,64.688,84.398,64.688z"/>
		</g>
		<g>
			<path d="M101.396,60.321l1.121-8.616l-2.666-0.348l0.541-3.052l9.117-0.348l0.154,0.386l-1.584,6.182l0.232,0.116
				c0.85-1.932,1.971-3.554,3.322-4.907c1.354-1.352,2.975-2.047,4.869-2.047c2.201,0,3.283,1.043,3.283,3.129
				c0,0.889-0.193,1.894-0.617,3.053l0.23,0.077c1.855-4.212,4.096-6.259,7.496-6.259c2.627,0,4.096,1.623,4.096,4.365
				c0,0.773-0.156,1.7-0.426,2.782l-1.932,7.572c-0.078,0.271-0.115,0.541-0.115,0.772c0,0.734,0.348,1.121,1.08,1.121
				c0.426,0,1.006-0.271,1.701-0.812l1.197,1.738c-1.584,1.815-3.631,2.743-6.143,2.743c-2.473,0-4.598-1.275-4.598-4.057
				c0-1.661,0.811-4.945,2.395-9.852c0.271-0.812,0.387-1.391,0.387-1.7c0-0.579-0.27-0.851-0.85-0.851
				c-0.656,0-1.391,0.58-2.203,1.701c-0.771,1.119-1.428,2.434-1.932,3.939c-1.119,3.207-1.932,6.646-2.355,10.239h-0.465
				c-1.66,0-3.746,0.116-6.336,0.348c1.508-5.834,2.627-10.394,3.4-13.755c0.193-0.811,0.309-1.391,0.309-1.699
				c0-0.502-0.23-0.773-0.695-0.773c-0.734,0-1.584,0.734-2.473,2.164s-1.66,3.207-2.318,5.293
				c-0.811,2.627-1.391,5.447-1.738,8.461h-0.541l-3.207,0.116c-1.814,0.116-2.975,0.193-3.477,0.271L101.396,60.321z"/>
		</g>
		<g>
			<path d="M136.939,51.319c2.164-2.435,5.063-3.632,8.732-3.632c4.52,0,6.568,2.125,6.568,5.061c0,2.435-1.508,4.443-4.018,4.443
				c-1.816,0-2.705-1.082-2.705-2.512c0-0.695,0.193-1.429,0.617-2.163h1.547c0.115-0.348,0.193-0.657,0.193-1.005
				c0-0.771-0.541-1.158-1.584-1.158c-2.01,0-3.594,1.584-4.367,3.863c-0.771,2.202-1.158,4.443-1.158,6.414
				c0,2.665,0.734,3.747,2.627,3.747c1.971,0,3.129-1.353,4.365-3.786l2.975,1.082c-0.656,1.622-1.699,3.09-3.205,4.365
				c-1.469,1.275-3.4,1.932-5.834,1.932c-5.256,0-7.959-2.704-7.959-7.533C133.734,56.767,134.816,53.715,136.939,51.319z"/>
		</g>
	</g>
</g>
</svg>
