<svg width="263" height="123" xmlns="http://www.w3.org/2000/svg">
 <style type="text/css">
  <![CDATA[
	.st0{fill:none;stroke:#000000;stroke-width:9.2378;stroke-linecap:round;stroke-linejoin:round;stroke-miterlimit:10;}
	.st1{fill:#BBBBBB;stroke:#000000;stroke-width:3.0793;stroke-linecap:round;stroke-linejoin:round;stroke-miterlimit:10;}
	.st2{fill:none;stroke:#000000;stroke-width:5;stroke-linecap:round;stroke-linejoin:round;stroke-miterlimit:10;}
	.st3{filter:url(#Adobe_OpacityMaskFilter);}
	.st4{fill:none;stroke:#FFFFFF;stroke-width:2;stroke-miterlimit:10;}
	.st5{fill:none;stroke:#000000;stroke-width:3.0793;stroke-linecap:round;stroke-linejoin:round;stroke-miterlimit:10;}
	.st6{fill:none;stroke:#FFFFFF;stroke-miterlimit:10;}
	.st7{fill:none;stroke:#000000;stroke-width:33;stroke-miterlimit:10;}
	.st8{fill:#BBBBBB;}
	.st9{fill:none;stroke:#000000;stroke-width:1.9245;stroke-linecap:round;stroke-linejoin:round;stroke-miterlimit:10;}
	.st10{mask:url(#SVGID_1_);}
	.st11{mask:url(#SVGID_2_);}
	.st12{mask:url(#SVGID_3_);}
	.st13{mask:url(#SVGID_4_);}
	.st14{stroke:#000000;stroke-width:3.0793;stroke-linecap:round;stroke-linejoin:round;stroke-miterlimit:10;}
	.st15{fill:none;stroke:#000000;stroke-miterlimit:10;}
	.st16{fill:#FFFFFF;}
	.st17{fill:none;stroke:#00AEEF;stroke-width:6;stroke-linecap:round;stroke-linejoin:round;stroke-miterlimit:10;}
	.st18{fill:none;stroke:#00AEEF;stroke-width:8;stroke-linecap:round;stroke-linejoin:round;stroke-miterlimit:10;}
	.st19{fill:#FFFFFF;stroke:#00AEEF;stroke-width:8;stroke-linecap:round;stroke-linejoin:round;stroke-miterlimit:10;}
	.st20{stroke:#000000;stroke-width:8;stroke-linecap:round;stroke-linejoin:round;stroke-miterlimit:10;}
	.st21{fill:#00AEEF;}
	.st22{fill:none;stroke:#000000;stroke-width:24;stroke-linecap:round;stroke-linejoin:round;stroke-miterlimit:10;}
	.st23{filter:url(#Adobe_OpacityMaskFilter_1_);}
	.st24{filter:url(#Adobe_OpacityMaskFilter_2_);}
	.st25{filter:url(#Adobe_OpacityMaskFilter_3_);}
	.st26{fill:none;stroke:#000000;stroke-width:42.5197;stroke-miterlimit:10;}
]]>
 </style>

 <g>
  <title>background</title>
  <rect fill="none" id="canvas_background" height="125" width="265" y="-1" x="-1"/>
 </g>
 <g>
  <title>Layer 1</title>
  <g stroke="null" id="svg_1">
   <g stroke="null" id="svg_2">
    <g stroke="null" id="svg_3">
     <path stroke="null" id="svg_4" d="m259.661074,64.662248c-9.165904,0 -10.453886,5.54663 -10.453886,9.549067c0,3.485398 0.519347,6.970796 1.03177,10.451578c0.519347,3.485398 1.03177,7.097748 1.03177,10.583146c0,13.032157 -8.12721,17.678585 -18.708047,17.678585l-2.714456,0l0,-7.097748l2.195108,0c7.227008,-0.12926 10.324626,-3.997821 10.324626,-11.224828c0,-3.097619 -0.514731,-6.065978 -0.90251,-9.290548c-0.519347,-3.097619 -1.03177,-6.324497 -1.03177,-9.809895c0,-8.258778 3.610041,-12.646686 9.290548,-14.066236l0,-0.256211c-5.680506,-1.548809 -9.290548,-5.678198 -9.290548,-13.936976c0,-3.485398 0.514731,-6.583017 1.03177,-9.807587c0.387779,-3.097619 0.90251,-6.195237 0.90251,-9.163596c0,-6.968488 -2.709839,-10.968617 -10.193058,-11.097877l-2.326676,0l0,-7.097748l2.582888,0c10.968617,0 18.839615,5.034207 18.839615,16.903027c0,3.614658 -0.514731,7.097748 -1.03177,10.712406c-0.514731,3.61235 -1.03177,7.227008 -1.03177,10.839357c0,4.517168 1.29029,9.551376 10.453886,9.551376l0,6.580709z"/>
    </g>
   </g>
   <g stroke="null" id="svg_5">
    <g stroke="null" id="svg_6">
     <path stroke="null" id="svg_7" d="m3.338898,58.08154c9.165904,0 10.453886,-5.034207 10.453886,-9.551376c0,-3.61235 -0.519347,-7.227008 -1.03177,-10.839357c-0.519347,-3.61235 -1.03177,-7.09544 -1.03177,-10.712406c0,-11.871127 7.741739,-16.903027 18.712664,-16.903027l2.709839,0l0,7.097748l-2.326676,0c-7.610171,0 -10.193058,4.129389 -10.193058,11.097877c0,2.968359 0.387779,6.065978 0.90251,9.163596c0.519347,3.22457 0.907127,6.322189 0.907127,9.807587c0.126952,8.258778 -3.485398,12.388167 -9.290548,13.936976l0,0.256211c5.807458,1.41955 9.417499,5.807458 9.290548,14.066236c0,3.485398 -0.387779,6.712277 -0.907127,9.809895c-0.514731,3.22457 -0.90251,6.195237 -0.90251,9.290548c0,7.227008 2.966051,11.224828 10.193058,11.224828l2.326676,0l0,7.097748l-2.709839,0c-10.712406,0 -18.712664,-4.646428 -18.712664,-17.678585c0,-3.485398 0.514731,-7.097748 1.03177,-10.583146c0.514731,-3.48309 1.03177,-6.968488 1.03177,-10.451578c0,-4.000129 -1.29029,-9.549067 -10.453886,-9.549067l0,-6.580709z"/>
    </g>
   </g>
   <g stroke="null" id="svg_8">
    <g stroke="null" id="svg_9">
     <path stroke="null" id="svg_10" d="m46.869442,48.994114c4.191711,-6.15369 9.809895,-9.18437 16.676822,-9.18437c5.798225,0 9.006638,2.942969 10.075339,6.776906l1.428782,-5.618185c1.694227,0.09002 3.210721,0.09002 4.724907,0.09002c4.904948,0 8.471133,-0.267752 10.878597,-0.715545c-3.386145,15.430388 -5.528165,26.216657 -6.509154,32.370346c-0.085404,0.803257 -0.175424,1.516494 -0.175424,2.142019c0,2.051999 0.893278,3.120701 2.582888,3.120701c1.073318,0 2.32206,-0.803257 3.746226,-2.317443l3.300741,3.478473c-2.852948,4.371751 -7.935628,7.490144 -13.020616,7.490144c-6.419134,0 -9.809895,-3.210721 -9.809895,-8.471133c0,-1.07101 0.09002,-2.142019 0.355464,-3.300741l-0.445485,-0.09002c-1.871959,6.689194 -7.935628,11.861895 -15.5181,11.861895c-9.629855,0 -14.534802,-5.885937 -14.534802,-16.496782c0,-8.027957 2.051999,-15.072616 6.24371,-21.136285zm13.996989,30.055211c6.956947,0 10.25538,-17.034595 10.25538,-25.68346c0,-4.549483 -0.978681,-6.689194 -4.187094,-6.689194c-2.942969,0 -5.440453,2.675216 -7.312411,7.935628c-1.876575,5.26272 -2.852948,10.703173 -2.852948,16.40907s0.888661,8.027957 4.097074,8.027957z"/>
    </g>
    <g stroke="null" id="svg_11">
     <path stroke="null" id="svg_12" d="m100.101396,68.969369l2.587504,-19.887543l-6.15369,-0.803257l1.248742,-7.044659l21.043957,-0.803257l0.355464,0.890969l-3.656206,14.269358l0.535505,0.267752c1.961979,-4.459463 4.549483,-8.203381 7.667876,-11.32639c3.125317,-3.120701 6.866927,-4.724907 11.238678,-4.724907c5.080372,0 7.577856,2.407464 7.577856,7.222391c0,2.051999 -0.445485,4.371751 -1.424166,7.046967l0.530888,0.177732c4.281731,-9.722183 9.454431,-14.44709 17.302347,-14.44709c6.063669,0 9.454431,3.746226 9.454431,10.075339c0,1.784247 -0.360081,3.923958 -0.983298,6.421442l-4.459463,17.477771c-0.18004,0.625525 -0.265444,1.248742 -0.265444,1.781939c0,1.694227 0.803257,2.587504 2.492868,2.587504c0.983298,0 2.32206,-0.625525 3.926266,-1.874267l2.762928,4.01167c-3.656206,4.189402 -8.381113,6.331422 -14.179338,6.331422c-5.708205,0 -10.613153,-2.942969 -10.613153,-9.364411c0,-3.833938 1.871959,-11.414102 5.528165,-22.740491c0.625525,-1.874267 0.893278,-3.210721 0.893278,-3.923958c0,-1.336454 -0.623217,-1.964287 -1.961979,-1.964287c-1.514186,0 -3.210721,1.338762 -5.084988,3.926266c-1.77963,2.582888 -3.296125,5.618185 -4.459463,9.092042c-2.582888,7.402432 -4.459463,15.340368 -5.435836,23.633769l-1.073318,0c-3.83163,0 -8.646557,0.267752 -14.624823,0.803257c3.480782,-13.466101 6.063669,-23.991542 7.847916,-31.749438c0.445485,-1.871959 0.713237,-3.210721 0.713237,-3.92165c0,-1.158722 -0.530888,-1.784247 -1.604206,-1.784247c-1.694227,0 -3.656206,1.694227 -5.708205,4.994968s-3.83163,7.402432 -5.350432,12.217359c-1.871959,6.063669 -3.210721,12.572823 -4.01167,19.52977l-1.248742,0l-7.402432,0.267752c-4.187094,0.267752 -6.866927,0.445485 -8.025648,0.625525l4.018595,-17.293114z"/>
    </g>
    <g stroke="null" id="svg_13">
     <path stroke="null" id="svg_14" d="m182.142128,48.190857c4.994968,-5.620493 11.686471,-8.383421 20.155295,-8.383421c10.433112,0 15.160328,4.904948 15.160328,11.681854c0,5.620493 -3.480782,10.25538 -9.27439,10.25538c-4.191711,0 -6.24371,-2.497484 -6.24371,-5.798225c0,-1.604206 0.445485,-3.298433 1.424166,-4.99266l3.570802,0c0.265444,-0.803257 0.445485,-1.516494 0.445485,-2.319752c0,-1.77963 -1.248742,-2.672908 -3.656206,-2.672908c-4.639503,0 -8.295709,3.656206 -10.079956,8.916618c-1.77963,5.08268 -2.672908,10.25538 -2.672908,14.804863c0,6.151381 1.694227,8.648865 6.063669,8.648865c4.549483,0 7.222391,-3.123009 10.075339,-8.738886l6.866927,2.497484c-1.514186,3.743918 -3.92165,7.132371 -7.397815,10.075339c-3.390761,2.942969 -7.847916,4.459463 -13.466101,4.459463c-12.131955,0 -18.371049,-6.241402 -18.371049,-17.387751c0.002308,-8.471133 2.499792,-15.515792 7.400123,-21.046265z"/>
    </g>
   </g>
  </g>
 </g>
</svg>